<mxfile host="app.diagrams.net" modified="2024-01-06T10:58:57.213Z" agent="Mozilla/5.0 (Windows NT 10.0; Win64; x64) AppleWebKit/537.36 (KHTML, like Gecko) Chrome/120.0.0.0 Safari/537.36" etag="2tBq3qSHowpnyceJBkBq" version="22.1.17" type="device">
  <diagram name="Page-1" id="LMFcsiNwEhPP2a7frcpS">
    <mxGraphModel dx="880" dy="468" grid="1" gridSize="10" guides="1" tooltips="1" connect="1" arrows="1" fold="1" page="1" pageScale="1" pageWidth="850" pageHeight="1100" math="0" shadow="0">
      <root>
        <mxCell id="0" />
        <mxCell id="1" parent="0" />
        <mxCell id="fWpn73Y7Xm2uYooDzwux-2" value="" style="rounded=1;whiteSpace=wrap;html=1;" vertex="1" parent="1">
          <mxGeometry x="40" y="70" width="750" height="320" as="geometry" />
        </mxCell>
        <mxCell id="fWpn73Y7Xm2uYooDzwux-3" value="&lt;p style=&quot;line-height: 140%; font-size: 19px;&quot;&gt;Inputs from user&lt;br&gt;&lt;/p&gt;" style="rounded=0;whiteSpace=wrap;html=1;" vertex="1" parent="1">
          <mxGeometry x="80" y="110" width="200" height="100" as="geometry" />
        </mxCell>
        <mxCell id="fWpn73Y7Xm2uYooDzwux-4" value="" style="rounded=0;whiteSpace=wrap;html=1;fillColor=#f8cecc;strokeColor=#b85450;" vertex="1" parent="1">
          <mxGeometry x="540" y="130" width="160" height="180" as="geometry" />
        </mxCell>
        <mxCell id="fWpn73Y7Xm2uYooDzwux-6" value="" style="endArrow=classic;startArrow=classic;html=1;rounded=0;exitX=1;exitY=0.5;exitDx=0;exitDy=0;" edge="1" parent="1" source="fWpn73Y7Xm2uYooDzwux-3" target="fWpn73Y7Xm2uYooDzwux-4">
          <mxGeometry width="50" height="50" relative="1" as="geometry">
            <mxPoint x="400" y="250" as="sourcePoint" />
            <mxPoint x="450" y="200" as="targetPoint" />
            <Array as="points">
              <mxPoint x="390" y="190" />
            </Array>
          </mxGeometry>
        </mxCell>
        <mxCell id="fWpn73Y7Xm2uYooDzwux-8" value="" style="rounded=1;whiteSpace=wrap;html=1;" vertex="1" parent="1">
          <mxGeometry x="550" y="270" width="40" height="20" as="geometry" />
        </mxCell>
        <mxCell id="fWpn73Y7Xm2uYooDzwux-9" value="" style="rounded=1;whiteSpace=wrap;html=1;" vertex="1" parent="1">
          <mxGeometry x="600" y="270" width="40" height="20" as="geometry" />
        </mxCell>
        <mxCell id="fWpn73Y7Xm2uYooDzwux-10" value="&lt;h1 style=&quot;font-size: 15px;&quot;&gt;&lt;font style=&quot;font-size: 15px;&quot;&gt;Heading&lt;/font&gt;&lt;/h1&gt;&lt;p style=&quot;font-size: 15px;&quot;&gt;&lt;font style=&quot;font-size: 15px;&quot;&gt;Lorem ipsum dolor sit amet, consectetur adipisicing elit, sed do eiusmod tempor incididunt ut labore et dolore magna aliqua.&lt;/font&gt;&lt;/p&gt;" style="text;html=1;strokeColor=none;fillColor=none;spacing=5;spacingTop=-20;whiteSpace=wrap;overflow=hidden;rounded=0;" vertex="1" parent="1">
          <mxGeometry x="550" y="140" width="130" height="120" as="geometry" />
        </mxCell>
        <mxCell id="fWpn73Y7Xm2uYooDzwux-12" value="" style="endArrow=none;html=1;rounded=0;exitX=0.489;exitY=1.003;exitDx=0;exitDy=0;exitPerimeter=0;entryX=0.5;entryY=0;entryDx=0;entryDy=0;" edge="1" parent="1" source="fWpn73Y7Xm2uYooDzwux-2" target="fWpn73Y7Xm2uYooDzwux-2">
          <mxGeometry width="50" height="50" relative="1" as="geometry">
            <mxPoint x="430" y="230" as="sourcePoint" />
            <mxPoint x="440" y="210" as="targetPoint" />
            <Array as="points" />
          </mxGeometry>
        </mxCell>
        <mxCell id="fWpn73Y7Xm2uYooDzwux-13" value="Card update here" style="text;html=1;strokeColor=none;fillColor=none;align=center;verticalAlign=middle;whiteSpace=wrap;rounded=0;" vertex="1" parent="1">
          <mxGeometry x="530" y="330" width="180" height="30" as="geometry" />
        </mxCell>
      </root>
    </mxGraphModel>
  </diagram>
</mxfile>
